<svg xmlns="http://www.w3.org/2000/svg" viewBox="0 0 64 64" fill="black">
  <!-- Compass Rose -->
  <circle cx="32" cy="32" r="28" fill="none" stroke="black" stroke-width="3"/>
  <circle cx="32" cy="32" r="22" fill="none" stroke="black" stroke-width="1"/>
  <!-- Main points -->
  <polygon points="32,4 36,24 32,20 28,24"/>
  <polygon points="32,60 36,40 32,44 28,40"/>
  <polygon points="4,32 24,28 20,32 24,36"/>
  <polygon points="60,32 40,28 44,32 40,36"/>
  <!-- Diagonal points -->
  <polygon points="12,12 24,24 20,24 24,20"/>
  <polygon points="52,12 40,24 44,20 40,24"/>
  <polygon points="12,52 24,40 20,40 24,44"/>
  <polygon points="52,52 40,40 44,44 40,40"/>
  <circle cx="32" cy="32" r="4"/>
</svg>