<svg xmlns="http://www.w3.org/2000/svg" viewBox="0 0 64 64" fill="white">
  <!-- Alchemy flask with bubbles -->
  <!-- Flask body (Erlenmeyer shape) -->
  <path d="M24 8h16v12l8 24c2 6-2 12-8 12H24c-6 0-10-6-8-12l8-24V8Z"/>
  <!-- Flask neck ring -->
  <rect x="22" y="6" width="20" height="4" rx="2"/>
  <!-- Liquid line -->
  <path d="M20 38c4-2 8 2 12 0s8 2 12 0" stroke="black" stroke-width="2" fill="none"/>
  <!-- Bubbles -->
  <circle cx="26" cy="46" r="3" fill="black"/>
  <circle cx="34" cy="50" r="2" fill="black"/>
  <circle cx="38" cy="44" r="2.5" fill="black"/>
  <circle cx="30" cy="42" r="1.5" fill="black"/>
  <!-- Vapor swirls -->
  <path d="M28 4c-2-4 2-4 0-8" stroke="white" stroke-width="2" fill="none" stroke-linecap="round"/>
  <path d="M36 4c2-4-2-4 0-8" stroke="white" stroke-width="2" fill="none" stroke-linecap="round"/>
</svg>