<svg xmlns="http://www.w3.org/2000/svg" viewBox="0 0 64 64" fill="white">
  <!-- Castle with towers -->
  <rect x="8" y="28" width="12" height="28"/>
  <rect x="44" y="28" width="12" height="28"/>
  <rect x="20" y="36" width="24" height="20"/>
  <!-- Tower tops (crenellations) -->
  <rect x="6" y="20" width="4" height="8"/>
  <rect x="14" y="20" width="4" height="8"/>
  <rect x="46" y="20" width="4" height="8"/>
  <rect x="54" y="20" width="4" height="8"/>
  <!-- Center tower -->
  <rect x="26" y="16" width="12" height="20"/>
  <rect x="24" y="8" width="4" height="8"/>
  <rect x="30" y="8" width="4" height="8"/>
  <rect x="36" y="8" width="4" height="8"/>
  <!-- Gate -->
  <path d="M28 56V44a4 4 0 018 0v12H28Z" fill="black"/>
  <!-- Windows -->
  <rect x="11" y="36" width="4" height="6" fill="black"/>
  <rect x="49" y="36" width="4" height="6" fill="black"/>
</svg>